<?xml version="1.0" encoding="utf-8"?>
<!-- Generator: Adobe Illustrator 24.0.2, SVG Export Plug-In . SVG Version: 6.00 Build 0)  -->
<svg version="1.1" id="Layer_1" xmlns="http://www.w3.org/2000/svg" xmlns:xlink="http://www.w3.org/1999/xlink" x="0px" y="0px"
	 viewBox="0 0 450 450" style="enable-background:new 0 0 450 450;" xml:space="preserve">
<style type="text/css">
	.st0{fill:#FFFFFF;}
</style>
<g>
	<path d="M276.29,84.33c1.8,0.55,2.97,0.73,3.99,1.24c20.32,10.06,35.59,25.18,45.44,45.67c1.38,2.88,0.86,5.51-1.37,7.77
		c-3.75,3.79-7.54,7.54-11.31,11.31c-32.35,32.34-64.71,64.67-97.03,97.04c-2.08,2.08-4.37,3.36-7.24,4.06
		c-17.76,4.32-35.48,8.78-53.23,13.17c-4.93,1.22-8.62-0.81-9.27-5.18c-0.18-1.19,0.04-2.49,0.33-3.67
		c4.43-18.16,8.85-36.32,13.43-54.45c0.48-1.91,1.62-3.91,3.01-5.31c36.05-36.18,72.17-72.29,108.33-108.36
		C272.83,86.19,274.82,85.3,276.29,84.33z M215.32,228.85c24.24-24.37,48.47-48.73,72.44-72.82c-3.58-3.59-7.48-7.49-11.02-11.05
		c-23.53,23.53-47.23,47.23-70.94,70.94C208.88,220.1,212.12,224.49,215.32,228.85z M195.64,205.51
		c23.77-23.77,47.5-47.5,71.05-71.05c-3.7-3.72-7.57-7.61-11.07-11.12c-24.19,24.18-48.48,48.46-72.73,72.7
		C187.01,199.1,191.41,202.37,195.64,205.51z M311.79,132.43c-3.08-4.29-6.09-8.98-9.6-13.27c-6.15-7.53-13.45-13.82-21.94-18.63
		c-0.69-0.39-2.1-0.58-2.53-0.18c-4.33,4.12-8.52,8.38-12.84,12.69c11.3,11.06,22.46,21.99,33.5,32.8
		C302.49,141.72,306.95,137.27,311.79,132.43z M205.29,239.1c-7.68-14.25-18.72-24.83-32.55-32.97c-2.11,8.46-4.18,16.64-6.13,24.84
		c-0.16,0.66,0.28,1.89,0.82,2.21c4.54,2.72,7.96,6.5,10.82,10.87c0.32,0.48,1.21,1,1.7,0.9
		C188.34,243.07,196.72,241.1,205.29,239.1z"/>
	<path d="M190.97,365.67c-3.17-0.17-5.33-0.27-7.49-0.4c-3.38-0.21-5.85-2.57-6.28-5.98c-0.38-2.99,1.51-5.93,4.76-6.66
		c3.8-0.86,7.72-1.19,11.54-1.99c8.38-1.76,16.51-4.31,22.74-10.55c2.29-2.29,4.3-5.15,5.53-8.12c2.06-5.01-0.39-9.42-5.53-11.25
		c-6.53-2.33-13.19-1.96-19.68-0.25c-7.13,1.87-14.08,4.44-21.14,6.6c-10.01,3.06-20.16,5.24-30.7,3.63
		c-10.97-1.68-18.32-8.34-20.53-18.67c-1.49-6.94-0.38-13.84,2.07-20.33c2.25-5.96,5.23-11.65,8.16-17.33
		c1.65-3.21,4.76-4.07,7.56-2.64c2.97,1.51,3.87,4.41,2.83,7.81c-2.56,8.36-4.82,16.79-3.86,25.68c0.44,4.13,2.02,5.71,6.19,6.03
		c6.87,0.52,13.33-1.43,19.74-3.51c7.5-2.43,14.82-5.51,22.44-7.41c11.66-2.92,23.51-3.84,35.02,1.01
		c8.07,3.4,14.36,8.83,17.17,17.37c3.96,12.05,0.1,22.26-8.21,31.09c-8.49,9.02-19.42,13.15-31.39,14.89
		C197.95,365.25,193.95,365.41,190.97,365.67z"/>
	<path class="st0" d="M205.29,239.1c-8.57,1.99-16.94,3.97-25.34,5.84c-0.49,0.11-1.38-0.41-1.7-0.9
		c-2.87-4.37-6.28-8.15-10.82-10.87c-0.54-0.32-0.98-1.55-0.82-2.21c1.95-8.2,4.02-16.37,6.13-24.84
		C186.56,214.27,197.61,224.85,205.29,239.1z"/>
</g>
</svg>
