<?xml version="1.0" encoding="utf-8"?>
<!-- Generator: Adobe Illustrator 24.0.2, SVG Export Plug-In . SVG Version: 6.00 Build 0)  -->
<svg version="1.1" id="Layer_1" xmlns="http://www.w3.org/2000/svg" xmlns:xlink="http://www.w3.org/1999/xlink" x="0px" y="0px"
	 viewBox="0 0 450 450" style="enable-background:new 0 0 450 450;" xml:space="preserve">
<g>
	<path d="M373.03,373.11c-98.77,0-197.32,0-296.05,0c0-98.75,0-197.41,0-296.22c98.65,0,197.26,0,296.05,0
		C373.03,175.57,373.03,274.24,373.03,373.11z M349.23,100.73c-83.02,0-165.77,0-248.43,0c0,43.28,0,86.33,0,129.38
		c0.7-0.16,0.92-0.52,1.2-0.82c14.66-15.6,29.36-31.16,43.99-46.8c6.07-6.48,15.02-6.71,21.32-0.36
		c29.35,29.56,58.69,59.12,88.03,88.7c0.7,0.7,1.22,1.57,2.08,2.7c1.04-1.24,1.63-2.06,2.33-2.77c16.68-16.9,33.5-33.66,49.99-50.74
		c4.98-5.16,16.04-4.65,20.13-0.02c5.46,6.17,11.55,11.76,17.38,17.6c0.55,0.55,1.16,1.03,1.98,1.75
		C349.23,192.93,349.23,146.9,349.23,100.73z M157.11,204.07c-0.93,0.86-1.54,1.38-2.1,1.94c-17.62,17.61-35.25,35.21-52.79,52.89
		c-0.92,0.93-1.62,2.55-1.62,3.84c-0.09,27.91-0.07,55.82-0.06,83.72c0,0.88,0.09,1.76,0.13,2.67c82.99,0,165.74,0,248.58,0
		c0.04-0.66,0.09-1.15,0.09-1.64c0-24.49,0.02-48.99-0.06-73.48c0-1.07-0.68-2.38-1.46-3.17c-8.72-8.84-17.52-17.59-26.3-26.37
		c-0.56-0.56-1.16-1.07-1.99-1.83c-0.85,0.98-1.46,1.77-2.16,2.48c-16.43,16.44-33.05,32.7-49.19,49.41
		c-5.32,5.5-16.03,5.3-21.27-0.01c-29.08-29.47-58.46-58.64-87.73-87.93C158.46,205.91,157.91,205.06,157.11,204.07z"/>
	<path d="M296,186.34c-14.75-0.04-26.71-12.03-26.64-26.7c0.07-14.7,12.08-26.57,26.83-26.52c14.89,0.05,26.65,11.98,26.58,26.96
		C322.7,174.61,310.7,186.38,296,186.34z"/>
</g>
</svg>
