<?xml version="1.0" encoding="utf-8"?>
<!-- Generator: Adobe Illustrator 24.0.2, SVG Export Plug-In . SVG Version: 6.00 Build 0)  -->
<svg version="1.1" id="Layer_1" xmlns="http://www.w3.org/2000/svg" xmlns:xlink="http://www.w3.org/1999/xlink" x="0px" y="0px"
	 viewBox="0 0 450 450" style="enable-background:new 0 0 450 450;" xml:space="preserve">
<g>
	<path d="M238.73,225.08c0,45.82,0,91.64,0,137.46c0,5.51-2.15,8.79-6.63,10.23c-3.03,0.97-5.76,0.27-8.22-1.59
		c-0.79-0.6-1.49-1.33-2.19-2.04c-25.87-25.85-51.75-51.7-77.58-77.59c-1.28-1.29-2.53-1.81-4.35-1.8
		c-16,0.07-31.99,0.04-47.99,0.04c-6.75,0-10.53-3.85-10.53-10.79c-0.01-28.74-0.01-57.49-0.01-86.23c0-7.25,0.11-14.5-0.03-21.74
		c-0.14-6.72,4.5-11,10.78-10.88c15.91,0.28,31.82,0.06,47.74,0.13c1.82,0.01,3.08-0.53,4.36-1.82
		c26.12-26.19,52.28-52.34,78.45-78.49c5.52-5.51,13.7-3.62,15.83,3.69c0.39,1.32,0.37,2.79,0.37,4.2
		C238.73,133.6,238.73,179.34,238.73,225.08z M219.98,341.22c0-77.62,0-154.91,0-232.21c-0.19-0.12-0.37-0.25-0.56-0.37
		c-0.61,0.79-1.14,1.65-1.84,2.35c-21.07,21.11-42.19,42.17-63.2,63.35c-3.11,3.13-6.48,4.51-10.87,4.45
		c-13.58-0.16-27.16-0.06-40.74-0.06c-0.96,0-1.91,0-2.82,0c0,31.09,0,61.77,0,92.57c1.12,0,2.04,0,2.95,0
		c13.91,0,27.83,0.06,41.74-0.04c3.67-0.03,6.5,1.2,9.08,3.79c21.34,21.43,42.75,42.79,64.14,64.17
		C218.47,339.85,219.13,340.43,219.98,341.22z"/>
	<path d="M368.81,224.99c-0.39,47.97-34.43,90.03-81.29,99.65c-6.4,1.31-13.03,1.49-19.56,2.18c-6.1,0.65-10.46-3.76-10.7-9
		c-0.24-5.36,4.18-9.42,10.28-9.52c19.61-0.33,37.14-6.59,52.12-19.19c16.86-14.19,27.37-32.23,29.47-54.34
		c3.44-36.26-11.1-63.82-42.11-82.52c-11.49-6.93-24.31-10.23-37.83-10.51c-2.28-0.05-4.73-0.31-6.79-1.21
		c-3.98-1.75-5.9-6.24-4.88-10.18c1.19-4.62,4.85-7.28,9.78-7.21c24.3,0.35,45.85,8.27,64.51,23.77
		c18.7,15.53,30.15,35.49,34.76,59.29C367.77,212.37,368.09,218.72,368.81,224.99z"/>
	<path d="M322.15,226.15c-0.81,23.69-15.84,44.38-38.49,51.52c-4.63,1.46-9.55,2.15-14.39,2.8c-3.91,0.53-7.66-0.1-10.2-3.77
		c-4.1-5.92-0.77-13.47,6.34-14.57c4.74-0.73,9.61-1.17,14.11-2.68c15.46-5.2,25.55-21.59,23.74-37.82
		c-2.17-19.4-16.85-33.14-36.4-33.67c-5.07-0.14-9.58-4.03-9.63-9.39c-0.04-5.11,4.31-9.42,9.82-9.17
		c22.28,1.03,38.9,11.21,49.21,31.19C320.4,208.61,321.8,217.26,322.15,226.15z"/>
</g>
</svg>
