<?xml version="1.0" encoding="utf-8"?>
<!-- Generator: Adobe Illustrator 24.0.2, SVG Export Plug-In . SVG Version: 6.00 Build 0)  -->
<svg version="1.1" id="Layer_1" xmlns="http://www.w3.org/2000/svg" xmlns:xlink="http://www.w3.org/1999/xlink" x="0px" y="0px"
	 viewBox="0 0 450 450" style="enable-background:new 0 0 450 450;" xml:space="preserve">
<g>
	<path d="M121.33,225.07c0-40.99,0.08-81.98-0.09-122.97c-0.02-5.76,3.42-10.44,10.4-10.42c62.07,0.17,124.14,0.1,186.21,0.13
		c1.88,0,3.86,0.15,5.61,0.76c2.76,0.97,4.42,3.18,4.99,6.08c0.19,0.97,0.29,1.98,0.29,2.97c0.01,82.32,0.01,164.63,0.01,246.95
		c0,3.99-1.37,7.2-5.2,8.89c-1.18,0.52-2.55,0.85-3.83,0.85c-63.15,0.04-126.31,0.04-189.46,0.02c-5.43,0-8.94-3.79-8.94-9.53
		C121.33,307.55,121.33,266.31,121.33,225.07z M310.74,340.48c0-77.07,0-153.94,0-230.89c-57.25,0-114.35,0-171.45,0
		c0,77.05,0,153.92,0,230.89C196.48,340.48,253.47,340.48,310.74,340.48z"/>
	<path d="M224.59,207.27c-21.57,0-43.15,0-64.72,0c-3.71,0-6.64-1.51-8.39-4.84c-1.76-3.35-1.31-6.64,0.94-9.61
		c1.9-2.5,4.64-3.41,7.69-3.42c6.25-0.02,12.49-0.01,18.74-0.01c36.65,0,73.3,0.01,109.95-0.02c4.25,0,7.7,1.29,9.61,5.34
		c2.35,4.99-0.51,10.88-5.9,12.14c-1.36,0.32-2.8,0.39-4.2,0.4C267.07,207.28,245.83,207.27,224.59,207.27z"/>
	<path d="M224.63,153.83c-21.48,0-42.97,0-64.45,0c-5.62,0-9.6-3.47-9.76-8.51c-0.17-5.17,3.94-9.2,9.66-9.21
		c43.05-0.03,86.1-0.01,129.16-0.03c4.02,0,7.19,1.4,9.04,5.04c1.61,3.17,1.25,6.32-0.86,9.17c-1.93,2.61-4.63,3.57-7.84,3.56
		C267.94,153.81,246.28,153.83,224.63,153.83z"/>
	<path d="M224.89,242.85c21.65,0,43.3,0.01,64.95-0.01c3.75,0,6.63,1.5,8.38,4.82c1.56,2.96,1.36,5.97-0.42,8.79
		c-1.45,2.29-3.55,3.7-6.31,3.98c-1.07,0.11-2.16,0.16-3.24,0.16c-42.14,0.01-84.27,0.02-126.41-0.03c-2.12,0-4.41-0.16-6.33-0.96
		c-3.94-1.64-5.65-5.64-4.75-9.9c0.84-3.95,4.21-6.75,8.41-6.83c4-0.08,7.99-0.02,11.99-0.02
		C189.08,242.85,206.99,242.85,224.89,242.85z"/>
	<path d="M224.57,313.9c-21.42,0-42.83,0.01-64.25-0.01c-5.4-0.01-8.63-2.47-9.65-7.18c-1.07-4.92,2.57-9.91,7.56-10.37
		c0.75-0.07,1.5-0.06,2.25-0.06c42.83,0,85.67,0,128.5-0.02c2.55,0,4.99,0.22,7.02,1.98c2.96,2.56,3.98,6.38,2.66,9.96
		c-1.22,3.29-4.58,5.67-8.34,5.67c-21.92,0.03-43.83,0.01-65.75,0.01C224.57,313.89,224.57,313.9,224.57,313.9z"/>
</g>
</svg>
