<?xml version="1.0" encoding="utf-8"?>
<!-- Generator: Adobe Illustrator 24.0.2, SVG Export Plug-In . SVG Version: 6.00 Build 0)  -->
<svg version="1.1" id="Layer_1" xmlns="http://www.w3.org/2000/svg" xmlns:xlink="http://www.w3.org/1999/xlink" x="0px" y="0px"
	 viewBox="0 0 450 450" style="enable-background:new 0 0 450 450;" xml:space="preserve">
<g>
	<path d="M337,366.74c-28.41,0-56.54,0-84.95,0c0-8.01,0-15.96,0-24.2c-3.92,0-7.56,0.02-11.2,0c-16.63-0.12-28.28-9.33-32.29-25.73
		c17.45-2.9,28.03-12.48,29.35-30.88c-7.5,9.95-18.11,12.14-29.88,12.41c0-3.26,0-6.29,0-9.56c-3.49,0-6.72,0.02-9.94,0
		c-5.58-0.03-8.5-4.26-6.46-9.49c3.96-10.14,7.78-20.35,12.07-30.35c3.12-7.26,5.2-14.67,5.75-22.54
		c1.39-20.08,10.56-36.16,25.57-49.09c14.74-12.7,31.87-20.23,51.38-20.36c31.3-0.22,54.96,13.88,70.77,40.74
		c19.43,33.03,10.94,76.01-18.52,100.22c-1.22,1-1.69,2-1.68,3.58c0.05,20.66,0.04,41.32,0.04,61.98
		C337,364.46,337,365.45,337,366.74z M298.35,282.5c9.15,0.06,16.33-3.27,21.15-10.77c5.45-8.47,5.52-17.27,0.13-25.82
		c-4.83-7.65-12.1-10.94-21.2-11.05c0,2.51,0,4.79,0,7.04c12.25,2.57,17.41,7.34,17.72,16.39c0.12,3.6-0.88,6.93-2.98,9.83
		c-3.61,4.99-8.71,7.21-14.82,7.18C298.35,277.78,298.35,279.92,298.35,282.5z M218.11,249.63c4.14-3.47,8.63-5.6,14.15-5.44
		c5.47,0.17,9.82,2.82,14.14,5.78c-2.09-4.47-4.67-8.49-8.62-11.44c-3.02-2.26-6.38-2.5-9.65-0.82
		C223.2,240.24,220.3,244.65,218.11,249.63z"/>
	<path d="M139.56,197.34c-7.85-2.84-15.23-4.93-22.11-8.11c-14.86-6.87-26.37-17.38-32.13-33.12c-4.92-13.43-3.64-26.54,3.57-38.88
		c8.46-14.47,21.39-23.5,36.94-28.86c18.36-6.33,36.94-6.8,55.67-1.33c13.58,3.96,25.48,10.65,34.8,21.35
		c15.31,17.58,17.8,41.52,2.4,61.53c-9.49,12.34-22.32,19.63-36.87,24.34c-0.96,0.31-1.93,0.94-2.64,1.67
		c-13.96,14.46-28.91,27.82-44.81,40.1c-0.5,0.39-1.08,0.67-1.73,1.07C135.02,223.52,137.34,210.14,139.56,197.34z M145.84,214.63
		c0.25,0.1,0.51,0.2,0.76,0.3c6.82-6.46,13.92-12.67,20.39-19.47c5.21-5.47,10.8-9.63,18.13-12.04c9.93-3.27,18.47-9.1,25.25-17.23
		c12.36-14.84,13.12-33.83,1.78-48.99c-8.13-10.87-19.27-17.42-32.01-21.43c-13.8-4.35-27.86-4.85-41.92-1.78
		c-14.81,3.23-27.95,9.71-37.74,21.74c-7.29,8.96-10.51,19.18-8.56,30.71c2.38,14.07,11.1,23.69,22.55,31.19
		c8.33,5.45,17.65,8.4,27.41,10.12c5.11,0.9,7.06,3.3,6.62,8.46c-0.34,3.97-1.15,7.89-1.73,11.84
		C146.44,210.25,146.15,212.44,145.84,214.63z"/>
</g>
</svg>
